<svg width="24" height="30" viewBox="0 0 24 30" fill="none" xmlns="http://www.w3.org/2000/svg">
<path d="M12.46 11.84C15.7244 11.84 18.38 9.18434 18.38 5.92C18.38 2.65566 15.7244 0 12.46 0C9.19569 0 6.54004 2.65566 6.54004 5.92C6.54004 9.18434 9.19569 11.84 12.46 11.84Z" fill="white"/>
<path d="M20.403 14.7092C20.4005 14.7084 20.3956 14.7066 20.3931 14.706C19.6223 14.5177 17.2619 14.1875 17.2619 14.1875C16.9954 14.1055 16.7107 14.2466 16.6148 14.5095L13.0619 24.2579C12.8569 24.8202 12.0616 24.8202 11.8566 24.2579L8.30369 14.5095C8.22632 14.2972 8.02592 14.1641 7.81117 14.1641C7.76026 14.1641 5.33329 14.5044 4.52531 14.7053C2.31743 15.2543 0.924805 17.4254 0.924805 19.688V27.7993C0.924805 29.0149 1.91026 30.0003 3.12581 30.0003H21.7907C23.0062 30.0003 23.9917 29.0149 23.9917 27.7993V19.661C23.9916 17.4082 22.5444 15.4089 20.403 14.7092Z" fill="white"/>
<path d="M13.7991 14.0008C13.6573 13.8462 13.45 13.7686 13.2403 13.7686H11.6762C11.4665 13.7686 11.2591 13.8463 11.1174 14.0008C10.8979 14.24 10.866 14.5855 11.0218 14.8555L11.858 16.116L11.4666 19.4181L12.2374 21.4686C12.3125 21.6748 12.6042 21.6748 12.6793 21.4686L13.4501 19.4181L13.0587 16.116L13.8949 14.8555C14.0505 14.5855 14.0186 14.24 13.7991 14.0008Z" fill="white"/>
</svg>
