<svg width="24" height="20" viewBox="0 0 24 20" fill="none" xmlns="http://www.w3.org/2000/svg">
<path d="M8.59644 8.43453L9.06147 4.76221H2.62481L1.56836 8.43453H8.59644Z" fill="#0C6CE6"/>
<path d="M10.0329 0.880371L9.60156 4.28702H14.3999L13.9686 0.880371H10.0329Z" fill="#0C6CE6"/>
<path d="M15.4902 12.8982L14.9853 8.90967H9.01662L8.51172 12.8982H15.4902Z" fill="#0C6CE6"/>
<path d="M9.54023 4.76221L9.0752 8.43453H14.9245L14.4594 4.76221H9.54023Z" fill="#0C6CE6"/>
<path d="M14.8791 4.28752H21.2392L20.3087 1.05198C20.279 0.950622 20.1861 0.880859 20.0805 0.880859H14.4473L14.8791 4.28752Z" fill="#0C6CE6"/>
<path d="M8.53696 8.90967H1.43205L0.37239 12.5943C0.353729 12.6662 0.367513 12.7425 0.410348 12.8032C0.454031 12.8643 0.525281 12.8999 0.600348 12.8982H8.03206L8.53696 8.90967Z" fill="#0C6CE6"/>
<path d="M22.5688 8.90967H15.4639L15.9688 12.8997H23.4005C23.4755 12.9014 23.5468 12.8657 23.5905 12.8047C23.6333 12.744 23.6471 12.6675 23.6284 12.5956L22.5688 8.90967Z" fill="#0C6CE6"/>
<path d="M21.3751 4.76221H14.9385L15.4035 8.43453H22.4313L21.3751 4.76221Z" fill="#0C6CE6"/>
<path d="M9.12231 4.28751L9.55363 0.880859H3.9204C3.8148 0.880859 3.72192 0.950628 3.69223 1.05198L2.76172 4.28768L9.12231 4.28751Z" fill="#0C6CE6"/>
<path d="M17.4435 18.7073C17.4427 18.9233 17.3561 19.1301 17.2028 19.2824C17.0497 19.4346 16.8425 19.5199 16.6267 19.5197H7.37369C7.0836 19.5197 6.81536 19.3649 6.67031 19.1136C6.52526 18.8621 6.52526 18.5525 6.67031 18.3012C6.81535 18.0499 7.0836 17.8951 7.37369 17.8951H10.4423C10.5082 17.4303 10.7829 17.021 11.1881 16.7835V13.373H12.8126V16.7835H12.8124C13.2176 17.021 13.4922 17.4303 13.5582 17.8951H16.6268C16.8427 17.8949 17.0499 17.9801 17.2029 18.1324C17.3562 18.2846 17.4428 18.4914 17.4436 18.7073L17.4435 18.7073Z" fill="#0C6CE6"/>
</svg>
