<svg width="20" height="20" viewBox="0 0 20 20" fill="none" xmlns="http://www.w3.org/2000/svg">
<path fill-rule="evenodd" clip-rule="evenodd" d="M3.33268 1.66699C2.41221 1.66699 1.66602 2.41318 1.66602 3.33366V6.66699C1.66602 7.58747 2.41221 8.33366 3.33268 8.33366H6.66602C7.58649 8.33366 8.33268 7.58747 8.33268 6.66699V3.33366C8.33268 2.41318 7.58649 1.66699 6.66602 1.66699H3.33268ZM14.9993 8.33366C16.8403 8.33366 18.3327 6.84127 18.3327 5.00033C18.3327 3.15938 16.8403 1.66699 14.9993 1.66699C13.1584 1.66699 11.666 3.15938 11.666 5.00033C11.666 6.84127 13.1584 8.33366 14.9993 8.33366ZM8.33268 15.0003C8.33268 16.8413 6.8403 18.3337 4.99935 18.3337C3.1584 18.3337 1.66602 16.8413 1.66602 15.0003C1.66602 13.1594 3.1584 11.667 4.99935 11.667C6.8403 11.667 8.33268 13.1594 8.33268 15.0003ZM13.3327 11.667C12.4122 11.667 11.666 12.4132 11.666 13.3337V16.667C11.666 17.5875 12.4122 18.3337 13.3327 18.3337H16.666C17.5865 18.3337 18.3327 17.5875 18.3327 16.667V13.3337C18.3327 12.4132 17.5865 11.667 16.666 11.667H13.3327Z" fill="#0C6CE6"/>
</svg>
