<svg width="12" height="16" viewBox="0 0 12 16" fill="none" xmlns="http://www.w3.org/2000/svg">
<path fill-rule="evenodd" clip-rule="evenodd" d="M4.0547 1.16795C4.3329 0.750651 4.80125 0.5 5.30278 0.5H6.69722C7.19875 0.5 7.6671 0.750652 7.9453 1.16795L8.625 2.1875H11.4375C11.7482 2.1875 12 2.43934 12 2.75C12 3.06066 11.7482 3.3125 11.4375 3.3125H0.5625C0.25184 3.3125 0 3.06066 0 2.75C0 2.43934 0.25184 2.1875 0.5625 2.1875H3.375L4.0547 1.16795ZM8.25 15.5H3.75C2.09315 15.5 0.75 14.1569 0.75 12.5V4.25H11.25V12.5C11.25 14.1569 9.90685 15.5 8.25 15.5ZM4.5 6.6875C4.81066 6.6875 5.0625 6.93934 5.0625 7.25V12.5C5.0625 12.8107 4.81066 13.0625 4.5 13.0625C4.18934 13.0625 3.9375 12.8107 3.9375 12.5L3.9375 7.25C3.9375 6.93934 4.18934 6.6875 4.5 6.6875ZM7.5 6.6875C7.81066 6.6875 8.0625 6.93934 8.0625 7.25V12.5C8.0625 12.8107 7.81066 13.0625 7.5 13.0625C7.18934 13.0625 6.9375 12.8107 6.9375 12.5V7.25C6.9375 6.93934 7.18934 6.6875 7.5 6.6875Z" fill="#D74848"/>
</svg>
