<svg width="10" height="20" viewBox="0 0 10 20" fill="none" xmlns="http://www.w3.org/2000/svg">
<path d="M9.6438 5.06062H6.51303L8.14513 0.404024H8.14494C8.17397 0.320923 8.16107 0.229089 8.11041 0.157184C8.05956 0.0854636 7.97722 0.042585 7.88937 0.0422061H3.36863C3.24379 0.0372732 3.13166 0.118099 3.09674 0.238007L0.104646 10.5279C0.0801707 10.6119 0.097437 10.7026 0.151321 10.7717C0.205396 10.8405 0.289254 10.8794 0.376721 10.876H2.82462L2.34593 18.8699C2.33701 18.9991 2.4203 19.1166 2.54515 19.1509C2.66999 19.1852 2.80166 19.1268 2.86011 19.0114L9.89665 5.45759C9.94029 5.37316 9.93687 5.27203 9.88735 5.19102C9.83783 5.10981 9.74961 5.06029 9.65455 5.06048L9.6438 5.06062Z" fill="#F98600"/>
</svg>
