<svg width="22" height="21" viewBox="0 0 22 21" fill="none" xmlns="http://www.w3.org/2000/svg">
<path d="M4.06686 0.200195H17.9338C18.8532 0.200195 19.7349 0.565384 20.3851 1.21553C21.0352 1.86568 21.4004 2.74738 21.4004 3.66681V17.5337C21.4004 18.4532 21.0352 19.3349 20.3851 19.985C19.7349 20.6352 18.8532 21.0003 17.9338 21.0003H4.06686C3.14743 21.0003 2.26573 20.6352 1.61558 19.985C0.965431 19.3349 0.600243 18.4532 0.600243 17.5337V3.66681C0.600243 2.74738 0.965431 1.86568 1.61558 1.21553C2.26573 0.565384 3.14743 0.200195 4.06686 0.200195V0.200195ZM10.1568 17.3138C10.1568 17.601 10.3897 17.8338 10.6768 17.8338H17.6793C17.9666 17.8338 18.1993 17.601 18.1993 17.3138V14.0667C18.1979 13.0866 17.7998 12.1487 17.0958 11.4667C16.7406 11.0962 16.3142 10.8014 15.8421 10.6C16.3634 10.0467 16.5793 9.27219 16.4192 8.52889C16.2593 7.78558 15.744 7.16868 15.0412 6.87878C14.3382 6.58889 13.5377 6.66317 12.9002 7.07755C12.2628 7.49192 11.8699 8.19329 11.8496 8.95341C11.8489 9.56887 12.0896 10.16 12.5198 10.6C12.0464 10.8 11.6166 11.0904 11.2545 11.4552C10.5492 12.1406 10.153 13.0832 10.1567 14.0666L10.1568 17.3138ZM3.93389 6.33619L5.30323 7.66505L4.97969 9.54281V9.54296C4.94907 9.71329 5.01857 9.88624 5.15887 9.98782C5.23794 10.0395 5.33008 10.0675 5.42467 10.0686C5.49751 10.0712 5.56962 10.0533 5.63259 10.0167L7.31969 9.13265L9.00115 10.0225C9.15233 10.1008 9.33428 10.0898 9.47487 9.99361C9.61198 9.88929 9.68249 9.71939 9.65971 9.54864L9.33617 7.67089L10.6997 6.34202C10.8238 6.22276 10.8666 6.04213 10.8095 5.87978C10.7509 5.7122 10.5993 5.59454 10.4224 5.5793L8.5331 5.3077L7.68955 3.60317V3.60332C7.60975 3.45591 7.45566 3.36392 7.28796 3.36392C7.12038 3.36392 6.96615 3.45591 6.88648 3.60332L6.03714 5.3367L4.15359 5.60831C3.98717 5.63718 3.84977 5.75456 3.79536 5.91445C3.75981 6.07332 3.81292 6.23901 3.93392 6.34783L3.93389 6.33619Z" fill="#0C6CE6"/>
</svg>
