<svg width="26" height="27" viewBox="0 0 26 27" fill="none" xmlns="http://www.w3.org/2000/svg">
<path d="M19.9827 0.865428C20.0936 0.844987 20.2076 0.844987 20.3185 0.865428L24.9435 1.71939C25.3822 1.80032 25.7006 2.18292 25.7006 2.6289V7.66397C25.7006 9.49415 24.7485 11.1951 23.186 12.1327L20.6265 13.6684C20.3335 13.8441 19.9676 13.8441 19.6747 13.6684L17.1152 12.1327C15.5526 11.1951 14.6006 9.49415 14.6006 7.66397V2.6289C14.6006 2.18292 14.919 1.80031 15.3577 1.71939L19.9827 0.865428Z" fill="#0C6CE6"/>
<path fill-rule="evenodd" clip-rule="evenodd" d="M12.8681 2.74746L14.4255 3.26654V5.2167L12.5755 4.59996L3.88635 7.49638L12.5755 11.8408L15.1447 10.5563C15.4387 11.1106 15.8175 11.6194 16.2701 12.0619L13.5005 13.4467V24.3284L22.7505 19.7034V13.9224L24.4118 12.9258C24.4756 12.8874 24.5384 12.8481 24.6006 12.8077V20.2748C24.6006 20.6252 24.4025 20.9454 24.0891 21.1021L12.9891 26.6521C12.7288 26.7824 12.4223 26.7824 12.162 26.6521L1.06201 21.1021C0.74879 20.9454 0.550781 20.6252 0.550781 20.2748V7.32478C0.550781 6.9267 0.805569 6.57321 1.18322 6.44725L12.2832 2.74725C12.4732 2.68386 12.6784 2.68386 12.8683 2.74725L12.8681 2.74746ZM6.53952 16.2503C6.81227 16.0819 7.15277 16.0666 7.43952 16.2099L10.2143 17.5974C10.5277 17.7541 10.7257 18.0743 10.7257 18.4247V21.1997C10.7257 21.5204 10.5597 21.8179 10.287 21.9866C10.0142 22.1551 9.67373 22.1703 9.38719 22.0271L6.61198 20.6396C6.29876 20.4828 6.10075 20.1626 6.10075 19.8122V17.0372C6.10075 16.7166 6.26676 16.4191 6.53951 16.2503H6.53952Z" fill="#0C6CE6"/>
</svg>
