<svg width="36" height="36" viewBox="0 0 36 36" fill="none" xmlns="http://www.w3.org/2000/svg">
<path d="M21 22.3848H15V32.8848H21V22.3848Z" fill="white"/>
<path d="M30.6302 15.2696L19.0652 3.44956C18.9257 3.30896 18.7598 3.19737 18.577 3.12122C18.3943 3.04507 18.1982 3.00586 18.0002 3.00586C17.8022 3.00586 17.6061 3.04507 17.4233 3.12122C17.2405 3.19737 17.0746 3.30896 16.9352 3.44956L5.37017 15.2846C5.09033 15.5667 4.86931 15.9015 4.71997 16.2698C4.57062 16.638 4.49591 17.0322 4.50017 17.4296V29.9996C4.49901 30.7674 4.79233 31.5065 5.31973 32.0646C5.84714 32.6227 6.56846 32.9573 7.33517 32.9996H12.0002V19.4996C12.0002 19.1017 12.1582 18.7202 12.4395 18.4389C12.7208 18.1576 13.1023 17.9996 13.5002 17.9996H22.5002C22.898 17.9996 23.2795 18.1576 23.5608 18.4389C23.8421 18.7202 24.0002 19.1017 24.0002 19.4996V32.9996H28.6652C29.4319 32.9573 30.1532 32.6227 30.6806 32.0646C31.208 31.5065 31.5013 30.7674 31.5002 29.9996V17.4296C31.5014 16.624 31.1894 15.8494 30.6302 15.2696Z" fill="white"/>
</svg>
