<svg width="18" height="18" viewBox="0 0 18 18" fill="none" xmlns="http://www.w3.org/2000/svg">
<path fill-rule="evenodd" clip-rule="evenodd" d="M9.00003 4.5C9.82846 4.5 10.5 3.82843 10.5 3C10.5 2.17157 9.82846 1.5 9.00003 1.5C8.17161 1.5 7.50003 2.17157 7.50003 3C7.50003 3.82843 8.17161 4.5 9.00003 4.5ZM9.00003 16.5C9.82846 16.5 10.5 15.8284 10.5 15C10.5 14.1716 9.82846 13.5 9.00003 13.5C8.17161 13.5 7.50003 14.1716 7.50003 15C7.50003 15.8284 8.17161 16.5 9.00003 16.5ZM14.9461 7.29913C14.2287 7.71334 13.3113 7.46753 12.8971 6.75009C12.4829 6.03265 12.7287 5.11526 13.4461 4.70105C14.1636 4.28684 15.0809 4.53265 15.4952 5.25009C15.9094 5.96753 15.6636 6.88491 14.9461 7.29913ZM2.50492 12.7501C2.91914 13.4675 3.83652 13.7133 4.55396 13.2991C5.2714 12.8849 5.51721 11.9675 5.103 11.2501C4.68879 10.5326 3.7714 10.2868 3.05396 10.701C2.33652 11.1153 2.09071 12.0326 2.50492 12.7501ZM13.4461 13.2989C12.7287 12.8847 12.4829 11.9673 12.8971 11.2499C13.3113 10.5325 14.2287 10.2867 14.9461 10.7009C15.6636 11.1151 15.9094 12.0325 15.4952 12.7499C15.0809 13.4673 14.1636 13.7132 13.4461 13.2989ZM2.50492 5.25009C2.09071 5.96753 2.33652 6.88491 3.05396 7.29913C3.7714 7.71334 4.68879 7.46753 5.103 6.75009C5.51721 6.03265 5.2714 5.11526 4.55396 4.70105C3.83652 4.28684 2.91914 4.53265 2.50492 5.25009Z" fill="#606060"/>
</svg>
