<svg width="18" height="18" viewBox="0 0 18 18" fill="none" xmlns="http://www.w3.org/2000/svg">
<path d="M15 8.16667C15 9.75698 14.0666 11.6729 12.7513 13.2301C12.1036 13.9968 11.3916 14.6416 10.7108 15.0888C10.0147 15.5461 9.42294 15.75 9 15.75V17.25C9.84268 17.25 10.7275 16.8725 11.5343 16.3425C12.3564 15.8025 13.1738 15.0544 13.8972 14.198C15.324 12.509 16.5 10.2583 16.5 8.16667H15ZM9 15.75C8.57706 15.75 7.9853 15.5461 7.2892 15.0888C6.6084 14.6416 5.89642 13.9968 5.24872 13.2301C3.93336 11.6729 3 9.75698 3 8.16667H1.5C1.5 10.2583 2.67601 12.509 4.10284 14.198C4.82624 15.0544 5.64355 15.8025 6.46568 16.3425C7.27251 16.8725 8.15732 17.25 9 17.25V15.75ZM3 8.16667C3 4.90774 5.67748 2.25 9 2.25V0.75C4.86668 0.75 1.5 4.0618 1.5 8.16667H3ZM9 2.25C12.3225 2.25 15 4.90774 15 8.16667H16.5C16.5 4.0618 13.1333 0.75 9 0.75V2.25ZM10.5 8.25C10.5 9.07843 9.82843 9.75 9 9.75V11.25C10.6569 11.25 12 9.90685 12 8.25H10.5ZM9 9.75C8.17157 9.75 7.5 9.07843 7.5 8.25H6C6 9.90685 7.34315 11.25 9 11.25V9.75ZM7.5 8.25C7.5 7.42157 8.17157 6.75 9 6.75V5.25C7.34315 5.25 6 6.59315 6 8.25H7.5ZM9 6.75C9.82843 6.75 10.5 7.42157 10.5 8.25H12C12 6.59315 10.6569 5.25 9 5.25V6.75Z" fill="#585757"/>
</svg>
