<svg width="30" height="43" viewBox="0 0 30 43" fill="none" xmlns="http://www.w3.org/2000/svg">
<path d="M21.061 18.1816H8.93955C7.26679 18.1816 5.90918 19.5392 5.90918 21.212V39.3943C5.90918 41.067 7.26679 42.4246 8.93955 42.4246H21.061C22.7338 42.4246 24.0914 41.067 24.0914 39.3943V21.212C24.0914 19.5392 22.7338 18.1816 21.061 18.1816ZM15.0003 30.3031C13.3306 30.3031 11.9699 28.9455 11.9699 27.2728C11.9699 25.6 13.3306 24.2424 15.0003 24.2424C16.67 24.2424 18.0307 25.6 18.0307 27.2728C18.0307 28.9455 16.67 30.3031 15.0003 30.3031Z" fill="white"/>
<path d="M15.001 27.2736H16.5162L15.001 27.2705V27.2736Z" fill="white"/>
<path d="M21.4284 14.7821L23.571 12.6395C18.9862 8.05744 11.0071 8.06047 6.42773 12.6395L8.57029 14.7821C12.0038 11.3516 17.9948 11.3486 21.4277 14.7821H21.4284Z" fill="white"/>
<path d="M15.0003 0C9.33364 0 4.00875 2.20611 0 6.21226L2.14256 8.35483C5.57883 4.92133 10.1426 3.03037 15 3.03037C19.8574 3.03037 24.4219 4.92133 27.8574 8.35483L30 6.21226C25.9938 2.20611 20.663 0 14.9997 0H15.0003Z" fill="white"/>
</svg>
