<svg width="19" height="16" viewBox="0 0 19 16" fill="none" xmlns="http://www.w3.org/2000/svg">
<path fill-rule="evenodd" clip-rule="evenodd" d="M14.2354 4.54196H17.9365C18.2463 4.54196 18.4988 4.79461 18.4988 5.10431V14.6761C18.4988 14.986 18.2462 15.2385 17.9365 15.2385L14.2354 15.2383C13.9255 15.2383 13.673 14.9857 13.673 14.676L13.6732 5.10453C13.6729 4.79468 13.9257 4.54217 14.2354 4.54217L14.2354 4.54196ZM1.06431 8.32267H4.76538C5.07523 8.32267 5.32774 8.57532 5.32774 8.88503V14.6757C5.32774 14.9856 5.07509 15.2381 4.76538 15.2381L1.06431 15.238C0.75446 15.238 0.501953 14.9853 0.501953 14.6756L0.502093 8.88489C0.502093 8.57518 0.754743 8.32239 1.06431 8.32239L1.06431 8.32267ZM11.3507 0.760885H7.65003C7.34018 0.760885 7.08767 1.01354 7.08767 1.32324V14.6757C7.08767 14.9856 7.34032 15.2381 7.65003 15.2381H11.3511C11.6609 15.2381 11.9135 14.9854 11.9135 14.6757V1.32324C11.9135 1.01339 11.6607 0.760742 11.351 0.760742L11.3507 0.760885Z" fill="#0C6CE6"/>
</svg>
