<svg width="17" height="17" viewBox="0 0 17 17" fill="none" xmlns="http://www.w3.org/2000/svg">
<path fill-rule="evenodd" clip-rule="evenodd" d="M15.5837 8.50033C15.5837 12.4123 12.4123 15.5837 8.50033 15.5837C4.58831 15.5837 1.41699 12.4123 1.41699 8.50033C1.41699 4.58831 4.58831 1.41699 8.50033 1.41699C12.4123 1.41699 15.5837 4.58831 15.5837 8.50033ZM7.79199 12.042C7.79199 11.6508 8.10912 11.3337 8.50033 11.3337C8.89153 11.3337 9.20866 11.6508 9.20866 12.042C9.20866 12.4332 8.89153 12.7503 8.50033 12.7503C8.10912 12.7503 7.79199 12.4332 7.79199 12.042ZM7.96908 9.91699C7.96908 10.2104 8.20692 10.4482 8.50033 10.4482C8.79373 10.4482 9.03158 10.2104 9.03158 9.91699L9.03158 4.95866C9.03158 4.66526 8.79373 4.42741 8.50033 4.42741C8.20692 4.42741 7.96908 4.66526 7.96908 4.95866L7.96908 9.91699Z" fill="#1D6BC5"/>
</svg>
