<svg width="9" height="9" viewBox="0 0 9 9" fill="none" xmlns="http://www.w3.org/2000/svg">
<path fill-rule="evenodd" clip-rule="evenodd" d="M8.25 4.5C8.25 6.57107 6.57107 8.25 4.5 8.25C2.42893 8.25 0.75 6.57107 0.75 4.5C0.75 2.42893 2.42893 0.75 4.5 0.75C6.57107 0.75 8.25 2.42893 8.25 4.5ZM4.125 6.375C4.125 6.16789 4.29289 6 4.5 6C4.70711 6 4.875 6.16789 4.875 6.375C4.875 6.58211 4.70711 6.75 4.5 6.75C4.29289 6.75 4.125 6.58211 4.125 6.375ZM4.21875 5.25C4.21875 5.40533 4.34467 5.53125 4.5 5.53125C4.65533 5.53125 4.78125 5.40533 4.78125 5.25L4.78125 2.625C4.78125 2.46967 4.65533 2.34375 4.5 2.34375C4.34467 2.34375 4.21875 2.46967 4.21875 2.625L4.21875 5.25Z" fill="#6B6A6A"/>
</svg>
